<svg xmlns="http://www.w3.org/2000/svg" xmlns:svg="http://www.w3.org/2000/svg" xmlns:xlink="http://www.w3.org/1999/xlink" id="svg4428" width="119.467" height="29.867" version="1.1"><defs id="defs4430"><linearGradient id="linearGradient3913"><stop id="stop3915" offset="0" stop-color="#fff" stop-opacity="1"/><stop id="stop3921" offset=".5" stop-color="#fff" stop-opacity=".498"/><stop id="stop3917" offset="1" stop-color="#fff" stop-opacity="0"/></linearGradient><linearGradient id="linearGradient3868"><stop id="stop3870" offset="0" stop-color="#5a5a5a" stop-opacity="1"/><stop id="stop3872" offset="1" stop-color="#646464" stop-opacity="1"/></linearGradient><linearGradient id="linearGradient3813"><stop id="stop3815" offset="0" stop-color="#666" stop-opacity="1"/><stop id="stop3817" offset="1" stop-color="#636363" stop-opacity="1"/></linearGradient><linearGradient id="linearGradient3787"><stop id="stop3789" offset="0" stop-color="#e5e5df" stop-opacity="1"/><stop id="stop3791" offset="1" stop-color="#dadad4" stop-opacity="1"/></linearGradient><linearGradient id="linearGradient3806-3-5-6"><stop id="stop3808-6-9-1" offset="0" stop-color="#303030" stop-opacity="1"/><stop id="stop3810-4-6-3" offset="1" stop-color="#232323" stop-opacity="1"/></linearGradient><linearGradient id="linearGradient3793" x1="40" x2="40" y1="1044.362" y2="1032.362" gradientUnits="userSpaceOnUse" xlink:href="#linearGradient3787"/><linearGradient id="linearGradient3828" x1="40" x2="40" y1="1044.362" y2="1032.362" gradientTransform="matrix(1.1666666,0,0,1.0769231,-6.5,-80.335554)" gradientUnits="userSpaceOnUse" xlink:href="#linearGradient3787"/><linearGradient id="linearGradient3835" x1="40" x2="40" y1="1044.362" y2="1032.362" gradientTransform="matrix(1.1666666,0,0,1.0769231,-35.5,-1105.6978)" gradientUnits="userSpaceOnUse" xlink:href="#linearGradient3787-8"/><linearGradient id="linearGradient3835-4" x1="40" x2="40" y1="1044.362" y2="1032.362" gradientTransform="matrix(1.1666666,0,0,1.0769231,-35.5,-1105.6978)" gradientUnits="userSpaceOnUse" xlink:href="#linearGradient3787-8"/><linearGradient id="linearGradient3787-8"><stop id="stop3789-2" offset="0" stop-color="#f5f5ee" stop-opacity="1"/><stop id="stop3791-6" offset="1" stop-color="#e6e6df" stop-opacity="1"/></linearGradient><linearGradient id="linearGradient3835-3" x1="40" x2="40" y1="1044.362" y2="1032.362" gradientTransform="matrix(1.1666666,0,0,1.0769231,-35.5,-1105.6978)" gradientUnits="userSpaceOnUse" xlink:href="#linearGradient3787-8"/><linearGradient id="linearGradient3787-7"><stop id="stop3789-3" offset="0" stop-color="#f5f5ee" stop-opacity="1"/><stop id="stop3791-3" offset="1" stop-color="#e6e6e0" stop-opacity="1"/></linearGradient><linearGradient id="linearGradient3807" x1="11" x2="11" y1="15.75" y2="8.25" gradientUnits="userSpaceOnUse" xlink:href="#linearGradient3787"/><linearGradient id="linearGradient3819" x1="29.5" x2="29.5" y1="15.2" y2="8.8" gradientUnits="userSpaceOnUse" xlink:href="#linearGradient3813"/><linearGradient id="linearGradient3807-1" x1="10" x2="10" y1="7" y2="15.889" gradientUnits="userSpaceOnUse" xlink:href="#linearGradient4231"/><linearGradient id="linearGradient4231"><stop id="stop4233" offset="0" stop-color="#e7e7e1" stop-opacity="1"/><stop id="stop4239" offset="1" stop-color="#dadad3" stop-opacity="1"/></linearGradient><linearGradient id="linearGradient3807-1-1" x1="10" x2="10" y1="15.889" y2="7" gradientUnits="userSpaceOnUse" xlink:href="#linearGradient4231-1"/><linearGradient id="linearGradient4231-1"><stop id="stop4233-6" offset="0" stop-color="#e5e5de" stop-opacity="1"/><stop id="stop4239-7" offset="1" stop-color="#dadad3" stop-opacity="1"/></linearGradient><linearGradient id="linearGradient4363"><stop id="stop4365" offset="0" stop-color="#979791" stop-opacity="1"/><stop id="stop4367" offset="1" stop-color="#dadad4" stop-opacity="0"/></linearGradient><linearGradient id="linearGradient4363-7"><stop id="stop4365-9" offset="0" stop-color="#f5f5ef" stop-opacity="1"/><stop id="stop4367-8" offset="1" stop-color="#dadad4" stop-opacity="0"/></linearGradient><linearGradient id="linearGradient4361" x1="248.632" x2="248.632" y1="79" y2="58" gradientTransform="matrix(1.1875,0,0,1,-41.25,0)" gradientUnits="userSpaceOnUse" xlink:href="#linearGradient4231-7"/><linearGradient id="linearGradient4231-7"><stop id="stop4233-4" offset="0" stop-color="#e6e6df" stop-opacity="1"/><stop id="stop4239-8" offset="1" stop-color="#d1d1ca" stop-opacity="1"/></linearGradient><linearGradient id="linearGradient3127" x1="248.632" x2="248.632" y1="79" y2="58" gradientTransform="matrix(1.1875,0,0,1,-262.25,-55.99998)" gradientUnits="userSpaceOnUse" xlink:href="#linearGradient4231-7"/><linearGradient id="linearGradient3154" x1="248.632" x2="248.632" y1="79" y2="58" gradientTransform="matrix(1.1875,0,0,1,-262.25,-55.99998)" gradientUnits="userSpaceOnUse" xlink:href="#linearGradient4231-7"/><linearGradient id="linearGradient3159" x1="248.632" x2="248.632" y1="79" y2="58" gradientTransform="matrix(1.1875,0,0,1,-249.25,-54.99998)" gradientUnits="userSpaceOnUse" xlink:href="#linearGradient4231-7"/><linearGradient id="linearGradient3159-0" x1="248.632" x2="248.632" y1="79" y2="58" gradientTransform="matrix(1.1875,0,0,1,-262.25,-55.99998)" gradientUnits="userSpaceOnUse" xlink:href="#linearGradient4231-7-9"/><linearGradient id="linearGradient4231-7-9"><stop id="stop4233-4-2" offset="0" stop-color="#e6e6df" stop-opacity="1"/><stop id="stop4239-8-9" offset="1" stop-color="#d1d1ca" stop-opacity="1"/></linearGradient><linearGradient id="linearGradient4231-5"><stop id="stop4233-41" offset="0" stop-color="#e5e5de" stop-opacity="1"/><stop id="stop4239-73" offset="1" stop-color="#dadad3" stop-opacity="1"/></linearGradient><linearGradient id="linearGradient3159-1" x1="248.632" x2="248.632" y1="79" y2="58" gradientTransform="matrix(1.1875,0,0,1,-262.25,-55.99998)" gradientUnits="userSpaceOnUse" xlink:href="#linearGradient4231-7-7"/><linearGradient id="linearGradient4231-7-7"><stop id="stop4233-4-7" offset="0" stop-color="#e6e6df" stop-opacity="1"/><stop id="stop4239-8-2" offset="1" stop-color="#d1d1ca" stop-opacity="1"/></linearGradient><linearGradient id="linearGradient3807-1-7" x1="10" x2="10" y1="15.889" y2="7" gradientUnits="userSpaceOnUse" xlink:href="#linearGradient4231-73"/><linearGradient id="linearGradient4231-73"><stop id="stop4233-1" offset="0" stop-color="#e5e5de" stop-opacity="1"/><stop id="stop4239-85" offset="1" stop-color="#dadad3" stop-opacity="1"/></linearGradient><radialGradient id="radialGradient5329" cx="-14.843" cy="1034.921" r="8.006" fx="-14.843" fy="1034.921" gradientTransform="matrix(1,0,0,0.49292897,0.12127985,524.5964)" gradientUnits="userSpaceOnUse" xlink:href="#linearGradient4363-7"/><filter id="filter5355" width="1.365" height="1.746" x="-.182" y="-.373"><feGaussianBlur id="feGaussianBlur5357" stdDeviation="1.207"/></filter></defs><metadata id="metadata4433"/><g id="layer1" transform="translate(0,-1092.653)"><path id="path3863" fill="url(#radialGradient5329)" fill-opacity="1" stroke="#000" stroke-dasharray="none" stroke-linecap="butt" stroke-linejoin="miter" stroke-miterlimit="4" stroke-opacity="1" stroke-width=".1" d="m -22.665748,1038.6229 h 15.8877044 c -0.3742772,-10.7481 -15.8936154,-9.9594 -15.8877044,0 z" filter="url(#filter5355)" opacity="0" transform="matrix(0.99862602,0,0,0.91748438,122.43674,158.27533)"/><g id="active-center" transform="matrix(0.02211836,0,0,-0.02211825,2.8148384,1117.8901)"><path id="path14" fill="#d52735" fill-opacity="1" fill-rule="evenodd" stroke="none" stroke-width="1.067" d="M 458.87893,7.858336 C 710.67947,7.858336 914.8,211.98293 914.8,463.78773 914.8,715.58293 710.67947,919.7088 458.87893,919.7088 207.07947,919.7088 2.9541653,715.58293 2.9541653,463.78773 2.9541653,211.98293 207.07947,7.858336 458.87893,7.858336"/><path id="path16" fill="#f25056" fill-opacity="1" fill-rule="evenodd" stroke="none" stroke-width="1.067" d="m 458.87893,46.637547 c 230.384,0 417.1456,186.762983 417.1456,417.150183 0,230.37867 -186.7616,417.14134 -417.1456,417.14134 -230.38293,0 -417.149757,-186.76267 -417.149757,-417.14134 0,-230.3872 186.766827,-417.150183 417.149757,-417.150183"/></g><g id="hover-center" transform="matrix(0.02211825,0,0,-0.02211826,25.480173,1117.8188)"><path id="path14-6" fill="#d52735" fill-opacity="1" fill-rule="evenodd" stroke="none" stroke-width="1.067" d="m 461.86667,4.637504 c 251.79626,0 455.92106,204.125166 455.92106,455.924626 0,251.80054 -204.1248,455.92534 -455.92106,455.92534 -251.80374,0 -455.929166,-204.1248 -455.929166,-455.92534 0,-251.79946 204.125426,-455.924626 455.929166,-455.924626"/><path id="path16-5" fill="#f25056" fill-opacity="1" fill-rule="evenodd" stroke="none" stroke-width="1.067" d="m 461.86667,43.41248 c 230.37866,0 417.14133,186.76672 417.14133,417.14965 0,230.384 -186.76267,417.14667 -417.14133,417.14667 -230.3872,0 -417.149977,-186.76267 -417.149977,-417.14667 0,-230.38293 186.762777,-417.14965 417.149977,-417.14965"/><path id="path18" fill="#9f1d2b" fill-opacity="1" fill-rule="evenodd" stroke="none" stroke-width="1.067" d="m 246.82133,299.19147 376.41174,376.4128 c 14.56746,14.5664 38.4,14.5664 52.97493,0 l 0.69653,-0.704 c 14.57067,-14.5664 14.57067,-38.4 0.004,-52.97067 L 300.496,245.52107 c -14.57067,-14.57067 -38.40427,-14.57067 -52.97067,0 l -0.704,0.69546 c -14.56746,14.57067 -14.56746,38.40854 0,52.97494"/><path id="path20" fill="#9f1d2b" fill-opacity="1" fill-rule="evenodd" stroke="none" stroke-width="1.067" d="m 300.496,675.60427 376.40853,-376.4128 c 14.5664,-14.5664 14.5664,-38.40427 0,-52.97067 l -0.7008,-0.69973 c -14.57066,-14.57067 -38.4032,-14.57067 -52.97066,0 L 246.82133,621.9296 c -14.57173,14.57067 -14.57173,38.40427 0,52.97493 l 0.69974,0.69974 c 14.57066,14.57066 38.40426,14.57066 52.97493,0"/></g><g id="pressed-center" transform="matrix(0.02211825,0,0,-0.02211836,47.96021,1117.9438)"><path id="path14-4" fill="#d52735" fill-opacity="1" fill-rule="evenodd" stroke="none" stroke-width="1.067" d="m 461.86667,10.287499 c 251.79626,0 455.92106,204.125301 455.92106,455.920501 0,251.80053 -204.1248,455.92533 -455.92106,455.92533 -251.80374,0 -455.929166,-204.1248 -455.929166,-455.92533 0,-251.7952 204.125426,-455.920501 455.929166,-455.920501"/><path id="path16-2" fill="#d52735" fill-opacity="1" fill-rule="evenodd" stroke="none" stroke-width="1.067" d="m 461.86667,49.062507 c 230.37866,0 417.14133,186.766823 417.14133,417.145493 0,230.38827 -186.76267,417.14987 -417.14133,417.14987 -230.3872,0 -417.149977,-186.7616 -417.149977,-417.14987 0,-230.37867 186.762777,-417.145493 417.149977,-417.145493"/><path id="path18-6" fill="#9f1d2b" fill-opacity="1" fill-rule="evenodd" stroke="none" stroke-width="1.067" d="m 246.82133,304.8416 376.41174,376.40853 c 14.56746,14.57067 38.4,14.57067 52.97493,0 l 0.69653,-0.69973 c 14.57067,-14.56747 14.57067,-38.40427 0.004,-52.97173 L 300.496,251.1712 c -14.57067,-14.57067 -38.40427,-14.57067 -52.97067,0 l -0.704,0.69547 c -14.56746,14.57066 -14.56746,38.40426 0,52.97493"/><path id="path20-2" fill="#9f1d2b" fill-opacity="1" fill-rule="evenodd" stroke="none" stroke-width="1.067" d="M 300.496,681.25013 676.90453,304.8416 c 14.5664,-14.5664 14.5664,-38.40427 0,-52.97493 l -0.7008,-0.69547 c -14.57066,-14.57067 -38.4032,-14.57067 -52.97066,0 L 246.82133,627.57867 c -14.57173,14.56746 -14.57173,38.40426 0,52.97173 l 0.69974,0.69973 c 14.57066,14.57067 38.40426,14.57067 52.97493,0"/></g><g id="inactive-center" transform="matrix(0.02211826,0,0,-0.02211835,73.959447,1117.8241)"><path id="path14-0" fill="#b4b4b4" fill-opacity="1" fill-rule="evenodd" stroke="none" stroke-width="1.067" d="m 458.87893,4.8749973 c 251.80054,0 455.92534,204.1212727 455.92534,455.9250027 0,251.79627 -204.1248,455.92107 -455.92534,455.92107 C 207.07947,916.72107 2.9541653,712.59627 2.9541653,460.8 2.9541653,208.99627 207.07947,4.8749973 458.87893,4.8749973"/><path id="path16-8" fill="#c7c7c7" fill-opacity="1" fill-rule="evenodd" stroke="none" stroke-width="1.067" d="m 458.87893,43.650027 c 230.384,0 417.14987,186.762773 417.14987,417.149973 0,230.37867 -186.76587,417.1456 -417.14987,417.1456 C 228.496,877.9456 41.729173,691.17867 41.729173,460.8 41.729173,230.4128 228.496,43.650027 458.87893,43.650027"/></g><g id="deactivated-center" transform="matrix(0.02211826,0,0,-0.02211835,96.716341,1117.8241)"><path id="path14-0-0" fill="#b4b4b4" fill-opacity="1" fill-rule="evenodd" stroke="none" stroke-width="1.067" d="m 458.87893,4.8749973 c 251.80054,0 455.92534,204.1212727 455.92534,455.9250027 0,251.79627 -204.1248,455.92107 -455.92534,455.92107 C 207.07947,916.72107 2.9541653,712.59627 2.9541653,460.8 2.9541653,208.99627 207.07947,4.8749973 458.87893,4.8749973"/><path id="path16-8-4" fill="#c7c7c7" fill-opacity="1" fill-rule="evenodd" stroke="none" stroke-width="1.067" d="m 458.87893,43.650027 c 230.384,0 417.14987,186.762773 417.14987,417.149973 0,230.37867 -186.76587,417.1456 -417.14987,417.1456 C 228.496,877.9456 41.729173,691.17867 41.729173,460.8 41.729173,230.4128 228.496,43.650027 458.87893,43.650027"/></g></g></svg>