<svg xmlns="http://www.w3.org/2000/svg" xmlns:xlink="http://www.w3.org/1999/xlink" id="svg4198" width="300" height="300" version="1.1" viewBox="0 0 300 300"><defs id="defs4200"><radialGradient id="radialGradient1933" cx="52" cy="20.518" r="3" fx="52" fy="20.518" gradientTransform="matrix(5.1222304e-6,-6.6666621,2.8571431,2.19444e-6,30.949579,1200.0314)" gradientUnits="userSpaceOnUse" xlink:href="#linearGradient2643-6"/><linearGradient id="linearGradient2643-6"><stop id="stop2639-7" offset="0" stop-opacity=".353"/><stop id="stop2655-5" offset=".45" stop-opacity=".137"/><stop id="stop2641-3" offset="1" stop-opacity="0"/></linearGradient><radialGradient id="radialGradient1562" cx="53.494" cy="24.514" r="3" fx="53.494" fy="24.514" gradientTransform="matrix(-6.7050097e-6,-4.7755858,6.1904971,-8.6634237e-6,-50.753481,1098.8698)" gradientUnits="userSpaceOnUse" xlink:href="#linearGradient2643-6"/><radialGradient id="radialGradient1987" cx="52.084" cy="51.595" r="3" fx="52.084" fy="51.595" gradientTransform="matrix(-6.1904772,1.5994408e-6,-1.2303386e-6,-4.7619033,421.99567,1202.7678)" gradientUnits="userSpaceOnUse" xlink:href="#linearGradient2643-6"/><radialGradient id="radialGradient2009" cx="53.027" cy="52.74" r="3" fx="53.027" fy="52.74" gradientTransform="matrix(-2.6288897,-0.00525889,0.00666803,-3.3333244,227.93698,1127.4579)" gradientUnits="userSpaceOnUse" xlink:href="#linearGradient2643-6"/><linearGradient id="linearGradient7337" x1="53" x2="53" y1="53.199" y2="59" gradientTransform="matrix(3.0624999,0,0,2.5000002,-61.31249,823.86215)" gradientUnits="userSpaceOnUse" xlink:href="#linearGradient2643-6"/><linearGradient id="linearGradient7463" x1="53" x2="53" y1="21.919" y2="16.5" gradientTransform="matrix(3.0624999,0,0,1.9999989,-61.312492,797.36218)" gradientUnits="userSpaceOnUse" xlink:href="#linearGradient2643-6"/><linearGradient id="linearGradient2050" x1="50.181" x2="47" y1="35" y2="35" gradientTransform="matrix(2.7000003,0,0,3.0625002,-45.900012,792.11215)" gradientUnits="userSpaceOnUse" xlink:href="#linearGradient2643-6"/><linearGradient id="linearGradient5030" x1="50.181" x2="47" y1="35" y2="35" gradientTransform="matrix(2.7000003,0,0,3.0625002,-45.900012,792.11215)" gradientUnits="userSpaceOnUse" xlink:href="#linearGradient2643-6"/><radialGradient id="radialGradient5032" cx="53.494" cy="24.514" r="3" fx="53.494" fy="24.514" gradientTransform="matrix(-6.7050097e-6,-4.7755858,6.1904971,-8.6634237e-6,-50.753481,1098.8698)" gradientUnits="userSpaceOnUse" xlink:href="#linearGradient2643-6"/><radialGradient id="radialGradient5034" cx="52" cy="20.518" r="3" fx="52" fy="20.518" gradientTransform="matrix(5.1222304e-6,-6.6666621,2.8571431,2.19444e-6,30.949579,1200.0314)" gradientUnits="userSpaceOnUse" xlink:href="#linearGradient2643-6"/><radialGradient id="radialGradient5044" cx="53.027" cy="52.74" r="3" fx="53.027" fy="52.74" gradientTransform="matrix(-2.6288897,-0.00525889,0.00666803,-3.3333244,227.93698,1127.4579)" gradientUnits="userSpaceOnUse" xlink:href="#linearGradient2643-6"/><radialGradient id="radialGradient5046" cx="52.084" cy="51.595" r="3" fx="52.084" fy="51.595" gradientTransform="matrix(-6.1904772,1.5994408e-6,-1.2303386e-6,-4.7619033,421.99567,1202.7678)" gradientUnits="userSpaceOnUse" xlink:href="#linearGradient2643-6"/></defs><path id="decoration-center" fill="#e0e0e0" fill-opacity="1" fill-rule="evenodd" stroke="none" d="m 101,101 v 98 h 98 v -98 z"/><g id="decoration-left" transform="translate(0,-752.36216)"><path id="path5066" fill="url(#linearGradient2050)" stroke="none" stroke-width="1.263" d="m 81,853.36216 v 98 h 6 v -98 z" color="#000" font-family="Sans" style="line-height:normal;text-indent:0;text-align:start;text-transform:none"/><path id="path5064" fill="#e0e0e0" fill-opacity="1" fill-rule="evenodd" stroke="none" stroke-width=".725" d="m 101,951.36156 v -97.9994 H 86 v 98 z"/></g><g id="decoration-top" transform="translate(0,-752.36216)"><path id="path1620" fill="#e0e0e0" fill-opacity="1" fill-rule="evenodd" stroke="none" stroke-width=".888" d="M 101.00061,853.36216 H 199 v -18 h -98 z"/><path id="path1622" fill="url(#linearGradient7463)" stroke="none" stroke-width=".628" d="m 199,833.36216 h -98 v 2 h 98 z" color="#000" font-family="Sans" style="line-height:normal;text-indent:0;text-align:start;text-transform:none"/></g><g id="decoration-bottom" transform="translate(0,-752.36216)"><path id="path1628" fill="url(#linearGradient7337)" stroke="none" stroke-width="1.403" d="m 101,971.36216 h 98 v -15 h -98 z" color="#000" font-family="Sans" style="line-height:normal;text-indent:0;text-align:start;text-transform:none"/><path id="path1626" fill="#e0e0e0" fill-opacity="1" fill-rule="evenodd" stroke="none" stroke-width=".512" d="M 198.9994,951.36216 H 101 v 6 h 98 z"/></g><g id="decoration-bottomleft" transform="translate(0,-752.36216)"><path id="path2007" fill="url(#radialGradient2009)" stroke="none" stroke-width=".864" d="M 101,971.36216 H 81 v -20 h 5.714286 c 0,4.28571 1.428572,5.71429 5.714287,5.71429 H 101 Z" color="#000" font-family="Sans" opacity=".6" style="line-height:normal;text-indent:0;text-align:start;text-transform:none"/><path id="path1818" fill="url(#radialGradient1987)" stroke="none" stroke-width=".864" d="M 101,971.36216 H 81 v -20 h 5.714286 c 0,4.28571 1.428572,5.71429 5.714287,5.71429 H 101 Z" color="#000" font-family="Sans" style="line-height:normal;text-indent:0;text-align:start;text-transform:none"/><path id="path1816" fill="#e0e0e0" fill-opacity="1" fill-rule="evenodd" stroke="none" stroke-width=".462" d="m 101,957.36216 h -8.999999 c -4.5,0 -6.000001,-1.5 -6.000001,-6 h 15 z"/></g><g id="decoration-topleft" transform="translate(0,-752.36216)"><path id="path1558" fill="url(#radialGradient1562)" stroke="none" stroke-width=".462" d="M 101,833.36216 H 81 v 20 h 5.714285 v -11.42858 c 0,-4.2857 1.428571,-5.71427 5.714286,-5.71427 H 101 Z" color="#000" font-family="Sans" style="line-height:normal;text-indent:0;text-align:start;text-transform:none"/><path id="path5072" fill="url(#radialGradient1933)" stroke="none" stroke-width=".462" d="M 101,833.36216 H 81 v 20 h 5.714287 v -11.42858 c 0,-4.28571 1.428571,-5.71428 5.714286,-5.71428 H 101 Z" color="#000" font-family="Sans" style="line-height:normal;text-indent:0;text-align:start;text-transform:none"/><path id="path5070" fill="#e0e0e0" fill-opacity="1" fill-rule="evenodd" stroke="none" stroke-width=".462" d="M 101,835.36216 H 92.000001 C 87.5,835.36216 86,836.86216 86,841.36215 v 12.00001 h 15 z"/></g><g id="decoration-right" transform="matrix(-1,0,0,1,300,-752.36216)"><path id="path5018" fill="url(#linearGradient5030)" stroke="none" stroke-width="1.263" d="m 81,853.36216 v 98 h 6 v -98 z" color="#000" font-family="Sans" style="line-height:normal;text-indent:0;text-align:start;text-transform:none"/><path id="path5020" fill="#e0e0e0" fill-opacity="1" fill-rule="evenodd" stroke="none" stroke-width=".725" d="m 101,951.36156 v -97.9994 H 86 v 98 z"/></g><g id="decoration-topright" transform="matrix(-1,0,0,1,300,-752.36216)"><path id="path5024" fill="url(#radialGradient5032)" stroke="none" stroke-width=".462" d="M 101,833.36216 H 81 v 20 h 5.714285 v -11.42858 c 0,-4.2857 1.428571,-5.71427 5.714286,-5.71427 H 101 Z" color="#000" font-family="Sans" style="line-height:normal;text-indent:0;text-align:start;text-transform:none"/><path id="path5026" fill="url(#radialGradient5034)" stroke="none" stroke-width=".462" d="M 101,833.36216 H 81 v 20 h 5.714287 v -11.42858 c 0,-4.28571 1.428571,-5.71428 5.714286,-5.71428 H 101 Z" color="#000" font-family="Sans" style="line-height:normal;text-indent:0;text-align:start;text-transform:none"/><path id="path5028" fill="#e0e0e0" fill-opacity="1" fill-rule="evenodd" stroke="none" stroke-width=".462" d="M 101,835.36216 H 92.000001 C 87.5,835.36216 86,836.86216 86,841.36215 v 12.00001 h 15 z"/></g><g id="decoration-bottomright" transform="matrix(-1,0,0,1,300,-752.36216)"><path id="path5038" fill="url(#radialGradient5044)" stroke="none" stroke-width=".864" d="M 101,971.36216 H 81 v -20 h 5.714286 c 0,4.28571 1.428572,5.71429 5.714287,5.71429 H 101 Z" color="#000" font-family="Sans" opacity=".6" style="line-height:normal;text-indent:0;text-align:start;text-transform:none"/><path id="path5040" fill="url(#radialGradient5046)" stroke="none" stroke-width=".864" d="M 101,971.36216 H 81 v -20 h 5.714286 c 0,4.28571 1.428572,5.71429 5.714287,5.71429 H 101 Z" color="#000" font-family="Sans" style="line-height:normal;text-indent:0;text-align:start;text-transform:none"/><path id="path5042" fill="#e0e0e0" fill-opacity="1" fill-rule="evenodd" stroke="none" stroke-width=".462" d="m 101,957.36216 h -8.999999 c -4.5,0 -6.000001,-1.5 -6.000001,-6 h 15 z"/></g><rect id="shadow-hint-top-margin" width="4" height="2" x="146" y="81" fill="#f0f" fill-opacity="1" stroke="none" stroke-width=".447" opacity="1"/><rect id="shadow-hint-bottom-margin" width="4" height="14" x="146" y="205" fill="#f0f" fill-opacity="1" stroke="none" stroke-width="1.183" opacity="1"/><rect id="shadow-hint-right-margin" width="5" height="4" x="214" y="141" fill="#f0f" fill-opacity="1" stroke="none" stroke-width=".707" opacity="1"/><rect id="shadow-hint-left-margin" width="5" height="4" x="81" y="141" fill="#f0f" fill-opacity="1" stroke="none" stroke-width=".707" opacity="1"/><rect id="hint-top-margin" width="4" height="20" x="151" y="81" fill="#00ff29" fill-opacity="1" stroke="none" stroke-width="1.085"/><rect id="hint-bottom-margin" width="4" height="20" x="151" y="199" fill="#00ff29" fill-opacity="1" stroke="none" stroke-width="1.085"/><rect id="hint-right-margin" width="4" height="20" x="136" y="-219" fill="#00ff29" fill-opacity="1" stroke="none" stroke-width="1.085" transform="rotate(90)"/><rect id="hint-left-margin" width="4" height="20" x="136" y="-101" fill="#00ff29" fill-opacity="1" stroke="none" stroke-width="1.085" transform="rotate(90)"/></svg>