<svg xmlns="http://www.w3.org/2000/svg" xmlns:svg="http://www.w3.org/2000/svg" xmlns:xlink="http://www.w3.org/1999/xlink" id="svg4428" width="119.467" height="29.867" version="1.1"><defs id="defs4430"><linearGradient id="linearGradient3913"><stop id="stop3915" offset="0" stop-color="#fff" stop-opacity="1"/><stop id="stop3921" offset=".5" stop-color="#fff" stop-opacity=".498"/><stop id="stop3917" offset="1" stop-color="#fff" stop-opacity="0"/></linearGradient><linearGradient id="linearGradient3868"><stop id="stop3870" offset="0" stop-color="#5a5a5a" stop-opacity="1"/><stop id="stop3872" offset="1" stop-color="#646464" stop-opacity="1"/></linearGradient><linearGradient id="linearGradient3813"><stop id="stop3815" offset="0" stop-color="#666" stop-opacity="1"/><stop id="stop3817" offset="1" stop-color="#636363" stop-opacity="1"/></linearGradient><linearGradient id="linearGradient3787"><stop id="stop3789" offset="0" stop-color="#e5e5df" stop-opacity="1"/><stop id="stop3791" offset="1" stop-color="#dadad4" stop-opacity="1"/></linearGradient><linearGradient id="linearGradient3806-3-5-6"><stop id="stop3808-6-9-1" offset="0" stop-color="#303030" stop-opacity="1"/><stop id="stop3810-4-6-3" offset="1" stop-color="#232323" stop-opacity="1"/></linearGradient><linearGradient id="linearGradient3793" x1="40" x2="40" y1="1044.362" y2="1032.362" gradientUnits="userSpaceOnUse" xlink:href="#linearGradient3787"/><linearGradient id="linearGradient3828" x1="40" x2="40" y1="1044.362" y2="1032.362" gradientTransform="matrix(1.1666666,0,0,1.0769231,-6.5,-80.335554)" gradientUnits="userSpaceOnUse" xlink:href="#linearGradient3787"/><linearGradient id="linearGradient3835" x1="40" x2="40" y1="1044.362" y2="1032.362" gradientTransform="matrix(1.1666666,0,0,1.0769231,-35.5,-1105.6978)" gradientUnits="userSpaceOnUse" xlink:href="#linearGradient3787-8"/><linearGradient id="linearGradient3835-4" x1="40" x2="40" y1="1044.362" y2="1032.362" gradientTransform="matrix(1.1666666,0,0,1.0769231,-35.5,-1105.6978)" gradientUnits="userSpaceOnUse" xlink:href="#linearGradient3787-8"/><linearGradient id="linearGradient3787-8"><stop id="stop3789-2" offset="0" stop-color="#f5f5ee" stop-opacity="1"/><stop id="stop3791-6" offset="1" stop-color="#e6e6df" stop-opacity="1"/></linearGradient><linearGradient id="linearGradient3835-3" x1="40" x2="40" y1="1044.362" y2="1032.362" gradientTransform="matrix(1.1666666,0,0,1.0769231,-35.5,-1105.6978)" gradientUnits="userSpaceOnUse" xlink:href="#linearGradient3787-8"/><linearGradient id="linearGradient3787-7"><stop id="stop3789-3" offset="0" stop-color="#f5f5ee" stop-opacity="1"/><stop id="stop3791-3" offset="1" stop-color="#e6e6e0" stop-opacity="1"/></linearGradient><linearGradient id="linearGradient3807" x1="11" x2="11" y1="15.75" y2="8.25" gradientUnits="userSpaceOnUse" xlink:href="#linearGradient3787"/><linearGradient id="linearGradient3819" x1="29.5" x2="29.5" y1="15.2" y2="8.8" gradientUnits="userSpaceOnUse" xlink:href="#linearGradient3813"/><linearGradient id="linearGradient3807-1" x1="10" x2="10" y1="7" y2="15.889" gradientUnits="userSpaceOnUse" xlink:href="#linearGradient4231"/><linearGradient id="linearGradient4231"><stop id="stop4233" offset="0" stop-color="#e7e7e1" stop-opacity="1"/><stop id="stop4239" offset="1" stop-color="#dadad3" stop-opacity="1"/></linearGradient><linearGradient id="linearGradient3807-1-1" x1="10" x2="10" y1="15.889" y2="7" gradientUnits="userSpaceOnUse" xlink:href="#linearGradient4231-1"/><linearGradient id="linearGradient4231-1"><stop id="stop4233-6" offset="0" stop-color="#e5e5de" stop-opacity="1"/><stop id="stop4239-7" offset="1" stop-color="#dadad3" stop-opacity="1"/></linearGradient><linearGradient id="linearGradient4363"><stop id="stop4365" offset="0" stop-color="#979791" stop-opacity="1"/><stop id="stop4367" offset="1" stop-color="#dadad4" stop-opacity="0"/></linearGradient><linearGradient id="linearGradient4363-7"><stop id="stop4365-9" offset="0" stop-color="#f5f5ef" stop-opacity="1"/><stop id="stop4367-8" offset="1" stop-color="#dadad4" stop-opacity="0"/></linearGradient><linearGradient id="linearGradient4361" x1="248.632" x2="248.632" y1="79" y2="58" gradientTransform="matrix(1.1875,0,0,1,-41.25,0)" gradientUnits="userSpaceOnUse" xlink:href="#linearGradient4231-7"/><linearGradient id="linearGradient4231-7"><stop id="stop4233-4" offset="0" stop-color="#e6e6df" stop-opacity="1"/><stop id="stop4239-8" offset="1" stop-color="#d1d1ca" stop-opacity="1"/></linearGradient><linearGradient id="linearGradient3127" x1="248.632" x2="248.632" y1="79" y2="58" gradientTransform="matrix(1.1875,0,0,1,-262.25,-55.99998)" gradientUnits="userSpaceOnUse" xlink:href="#linearGradient4231-7"/><linearGradient id="linearGradient3154" x1="248.632" x2="248.632" y1="79" y2="58" gradientTransform="matrix(1.1875,0,0,1,-262.25,-55.99998)" gradientUnits="userSpaceOnUse" xlink:href="#linearGradient4231-7"/><linearGradient id="linearGradient3159" x1="248.632" x2="248.632" y1="79" y2="58" gradientTransform="matrix(1.1875,0,0,1,-249.25,-54.99998)" gradientUnits="userSpaceOnUse" xlink:href="#linearGradient4231-7"/><linearGradient id="linearGradient3159-0" x1="248.632" x2="248.632" y1="79" y2="58" gradientTransform="matrix(1.1875,0,0,1,-262.25,-55.99998)" gradientUnits="userSpaceOnUse" xlink:href="#linearGradient4231-7-9"/><linearGradient id="linearGradient4231-7-9"><stop id="stop4233-4-2" offset="0" stop-color="#e6e6df" stop-opacity="1"/><stop id="stop4239-8-9" offset="1" stop-color="#d1d1ca" stop-opacity="1"/></linearGradient><linearGradient id="linearGradient4231-5"><stop id="stop4233-41" offset="0" stop-color="#e5e5de" stop-opacity="1"/><stop id="stop4239-73" offset="1" stop-color="#dadad3" stop-opacity="1"/></linearGradient><linearGradient id="linearGradient3159-1" x1="248.632" x2="248.632" y1="79" y2="58" gradientTransform="matrix(1.1875,0,0,1,-262.25,-55.99998)" gradientUnits="userSpaceOnUse" xlink:href="#linearGradient4231-7-7"/><linearGradient id="linearGradient4231-7-7"><stop id="stop4233-4-7" offset="0" stop-color="#e6e6df" stop-opacity="1"/><stop id="stop4239-8-2" offset="1" stop-color="#d1d1ca" stop-opacity="1"/></linearGradient><linearGradient id="linearGradient3807-1-7" x1="10" x2="10" y1="15.889" y2="7" gradientUnits="userSpaceOnUse" xlink:href="#linearGradient4231-73"/><linearGradient id="linearGradient4231-73"><stop id="stop4233-1" offset="0" stop-color="#e5e5de" stop-opacity="1"/><stop id="stop4239-85" offset="1" stop-color="#dadad3" stop-opacity="1"/></linearGradient><radialGradient id="radialGradient5329" cx="-14.843" cy="1034.921" r="8.006" fx="-14.843" fy="1034.921" gradientTransform="matrix(1,0,0,0.49292897,0.12127985,524.5964)" gradientUnits="userSpaceOnUse" xlink:href="#linearGradient4363-7"/><filter id="filter5355" width="1.365" height="1.746" x="-.182" y="-.373"><feGaussianBlur id="feGaussianBlur5357" stdDeviation="1.207"/></filter></defs><metadata id="metadata4433"/><g id="layer1" transform="translate(0,-1092.653)"><path id="path3863" fill="url(#radialGradient5329)" fill-opacity="1" stroke="#000" stroke-dasharray="none" stroke-linecap="butt" stroke-linejoin="miter" stroke-miterlimit="4" stroke-opacity="1" stroke-width=".1" d="m -22.665748,1038.6229 h 15.8877044 c -0.3742772,-10.7481 -15.8936154,-9.9594 -15.8877044,0 z" filter="url(#filter5355)" opacity="0" transform="matrix(0.99862602,0,0,0.91748438,122.43674,158.27533)"/><g id="active-center" transform="matrix(0.02211836,0,0,-0.02211825,2.8148384,1117.8901)"><path id="path14" fill="#c5a8ce" fill-opacity="1" fill-rule="evenodd" stroke="none" stroke-width="1.067" d="m 458.87896,7.858312 c 251.8005,0 455.9211,204.124598 455.9211,455.929418 0,251.79519 -204.1206,455.92109 -455.9211,455.92109 C 207.07951,919.70882 2.9541065,715.58292 2.9541065,463.78773 2.9541065,211.98291 207.07951,7.858312 458.87896,7.858312" enable-background="new"/><path id="path16" fill="#ccb0d5" fill-opacity="1" fill-rule="evenodd" stroke="none" stroke-width="1.067" d="m 458.87706,46.637782 c 230.384,0 417.1499,186.762968 417.1499,417.150178 0,230.37869 -186.7659,417.14139 -417.1499,417.14139 -230.38292,0 -417.149854,-186.7627 -417.149854,-417.14139 0,-230.38721 186.766934,-417.150178 417.149854,-417.150178" enable-background="new"/></g><g id="hover-center" transform="matrix(0.02211825,0,0,-0.02211826,25.480173,1117.8188)"><path id="path14-3" fill="#d1b6da" fill-opacity="1" fill-rule="evenodd" stroke="none" stroke-width="1.067" d="m 461.8607,916.48751 c -251.80178,0 -455.92333,-204.1245 -455.92333,-455.9291 0,-251.79517 204.12155,-455.92095 455.92333,-455.92095 251.80066,0 455.92716,204.12578 455.92716,455.92095 0,251.8046 -204.1265,455.9291 -455.92716,455.9291" enable-background="new"/><path id="path16-5" fill="#d1b6da" fill-opacity="1" fill-rule="evenodd" stroke="none" stroke-width="1.067" d="m 461.8626,877.70801 c -230.38514,0 -417.15193,-186.7628 -417.15193,-417.1499 0,-230.37859 186.76679,-417.1412 417.15193,-417.1412 230.38406,0 417.15196,186.76261 417.15196,417.1412 0,230.3871 -186.7679,417.1499 -417.15196,417.1499" enable-background="new"/><path id="path18-6" fill="#ab90b4" fill-opacity="1" fill-rule="evenodd" stroke="none" stroke-width="1.067" d="m 210.73721,382.46225 202.32908,202.32896 c 26.83838,26.8384 70.74931,26.8383 97.58706,6e-4 l 202.33081,-202.33078 -502.24695,0.001" enable-background="new"/></g><g id="pressed-center" transform="matrix(0.02211825,0,0,-0.02211836,47.96021,1117.9438)"><path id="path14-2" fill="#58b4aa" fill-opacity="1" fill-rule="evenodd" stroke="none" stroke-width="1.067" d="m 461.86449,10.287447 c 251.80179,0 455.92339,204.123583 455.92339,455.927123 0,251.79395 -204.1216,455.91881 -455.92339,455.91881 -251.80072,0 -455.927139,-204.12486 -455.927139,-455.91881 0,-251.80354 204.126419,-455.927123 455.927139,-455.927123"/><path id="path14-2-3" fill="#bfa2c8" fill-opacity="1" fill-rule="evenodd" stroke="none" stroke-width="1.067" d="m 461.86074,922.13339 c -251.8018,0 -455.9233,-204.1236 -455.9233,-455.9271 0,-251.79399 204.1215,-455.91885 455.9233,-455.91885 251.80066,0 455.92706,204.12486 455.92706,455.91885 0,251.8035 -204.1264,455.9271 -455.92706,455.9271" enable-background="new"/><path id="path16-9-6" fill="#bfa2c8" fill-opacity="1" fill-rule="evenodd" stroke="none" stroke-width="1.067" d="m 461.86074,883.35429 c -230.3852,0 -417.1519,-186.762 -417.1519,-417.148 0,-230.37753 186.7667,-417.1393 417.1519,-417.1393 230.38406,0 417.15186,186.76177 417.15186,417.1393 0,230.386 -186.7678,417.148 -417.15186,417.148" enable-background="new"/><path id="path18-6-3" fill="#9e83a7" fill-opacity="1" fill-rule="evenodd" stroke="none" stroke-width="1.067" d="m 210.73724,387.97912 202.3291,202.32797 c 26.8383,26.8383 70.7492,26.8382 97.58706,6e-4 l 202.3308,-202.32987 -502.24696,10e-4" enable-background="new"/></g><g id="inactive-center" transform="matrix(0.02211826,0,0,-0.02211835,73.959447,1117.8241)"><path id="path14-0" fill="#b4b4b4" fill-opacity="1" fill-rule="evenodd" stroke="none" stroke-width="1.067" d="m 458.87893,4.8749973 c 251.80054,0 455.92534,204.1212727 455.92534,455.9250027 0,251.79627 -204.1248,455.92107 -455.92534,455.92107 C 207.07947,916.72107 2.9541653,712.59627 2.9541653,460.8 2.9541653,208.99627 207.07947,4.8749973 458.87893,4.8749973"/><path id="path16-8" fill="#c7c7c7" fill-opacity="1" fill-rule="evenodd" stroke="none" stroke-width="1.067" d="m 458.87893,43.650027 c 230.384,0 417.14987,186.762773 417.14987,417.149973 0,230.37867 -186.76587,417.1456 -417.14987,417.1456 C 228.496,877.9456 41.729173,691.17867 41.729173,460.8 41.729173,230.4128 228.496,43.650027 458.87893,43.650027"/></g><g id="deactivated-center" transform="matrix(0.02211826,0,0,-0.02211835,96.716341,1117.8241)"><path id="path14-0-0" fill="#b4b4b4" fill-opacity="1" fill-rule="evenodd" stroke="none" stroke-width="1.067" d="m 458.87893,4.8749973 c 251.80054,0 455.92534,204.1212727 455.92534,455.9250027 0,251.79627 -204.1248,455.92107 -455.92534,455.92107 C 207.07947,916.72107 2.9541653,712.59627 2.9541653,460.8 2.9541653,208.99627 207.07947,4.8749973 458.87893,4.8749973"/><path id="path16-8-4" fill="#c7c7c7" fill-opacity="1" fill-rule="evenodd" stroke="none" stroke-width="1.067" d="m 458.87893,43.650027 c 230.384,0 417.14987,186.762773 417.14987,417.149973 0,230.37867 -186.76587,417.1456 -417.14987,417.1456 C 228.496,877.9456 41.729173,691.17867 41.729173,460.8 41.729173,230.4128 228.496,43.650027 458.87893,43.650027"/></g></g></svg>